<svg width="306" height="84" viewBox="0 0 459 127" fill="none" xmlns="http://www.w3.org/2000/svg">
<path d="M375.562 68.4655C375.884 69.3361 377.116 69.3361 377.438 68.4655L378.501 65.592C378.602 65.3182 378.818 65.1024 379.092 65.0012L381.966 63.9379C382.836 63.6157 382.836 62.3843 381.966 62.0621L379.092 60.9988C378.818 60.8976 378.602 60.6818 378.501 60.408L377.438 57.5345C377.116 56.6639 375.884 56.6639 375.562 57.5345L374.499 60.408C374.398 60.6818 374.182 60.8976 373.908 60.9988L371.035 62.0621C370.164 62.3843 370.164 63.6157 371.035 63.9379L373.908 65.0012C374.182 65.1024 374.398 65.3182 374.499 65.592L375.562 68.4655Z" fill="#1D201F"/>
<path fill-rule="evenodd" clip-rule="evenodd" d="M76.1017 30.2004C82.534 34.0985 90.6764 32.7551 95.5522 27.3912C96.6667 26.1652 98.4922 25.6857 99.9092 26.5444L108.782 31.9218C110.199 32.7805 110.652 34.6253 109.793 36.0423L56.7941 123.495C55.9354 124.912 54.0906 125.365 52.6736 124.506L2.56566 94.1389C1.1487 93.2802 0.696158 91.4354 1.55488 90.0184L54.5539 2.56566C55.4126 1.1487 57.2574 0.696153 58.6743 1.55487L70.891 8.95852C70.891 8.95852 70.891 8.95854 70.891 8.95856V8.95856C66.4641 16.2632 68.7971 25.7735 76.1017 30.2004ZM21.0444 64.0903C20.5822 64.853 19.5892 65.0965 18.8265 64.6343V64.6343C18.0638 64.1721 17.8202 63.1791 18.2824 62.4164L20.2366 59.1919C20.6988 58.4292 21.6918 58.1857 22.4545 58.6479V58.6479C23.2172 59.1101 23.4608 60.1031 22.9986 60.8658L21.0444 64.0903ZM32.8102 69.6009C31.9515 71.0179 30.1067 71.4704 28.6897 70.6117L28.297 70.3738C26.8801 69.515 26.4275 67.6702 27.2863 66.2533L27.8045 65.3981C28.6633 63.9811 30.5081 63.5286 31.925 64.3873L32.3177 64.6253C33.7346 65.484 34.1872 67.3288 33.3285 68.7457L32.8102 69.6009ZM43.858 76.2963C42.9993 77.7132 41.1545 78.1658 39.7375 77.307L39.3449 77.0691C37.9279 76.2104 37.4754 74.3656 38.3341 72.9486L38.8524 72.0934C39.7111 70.6764 41.5559 70.2239 42.9729 71.0826L43.3655 71.3206C44.7825 72.1793 45.235 74.0241 44.3763 75.4411L43.858 76.2963ZM54.9059 82.9916C54.0471 84.4085 52.2023 84.8611 50.7854 84.0024L50.3927 83.7644C48.9758 82.9057 48.5232 81.0609 49.3819 79.6439L49.9002 78.7887C50.7589 77.3718 52.6037 76.9192 54.0207 77.7779L54.4134 78.0159C55.8303 78.8746 56.2829 80.7194 55.4241 82.1364L54.9059 82.9916ZM65.9537 89.6869C65.095 91.1039 63.2502 91.5564 61.8332 90.6977L61.4406 90.4597C60.0236 89.601 59.5711 87.7562 60.4298 86.3392L60.9481 85.484C61.8068 84.0671 63.6516 83.6145 65.0685 84.4733L65.4612 84.7112C66.8782 85.5699 67.3307 87.4147 66.472 88.8317L65.9537 89.6869ZM73.5216 95.893C73.0594 96.6557 72.0665 96.8993 71.3038 96.4371V96.4371C70.5411 95.9749 70.2975 94.9819 70.7597 94.2192L72.7138 90.9947C73.1761 90.232 74.169 89.9884 74.9317 90.4506V90.4506C75.6944 90.9129 75.938 91.9058 75.4758 92.6685L73.5216 95.893Z" fill="#D938FC"/>
<path d="M56.1009 64.6364H63.5405L72.4361 80.723H72.7912L81.6868 64.6364H89.1265L75.8985 87.4347V101H69.3289V87.4347L56.1009 64.6364ZM100.326 101.533C97.6625 101.533 95.3543 100.947 93.4011 99.7749C91.448 98.603 89.9329 96.9635 88.8557 94.8565C87.7903 92.7495 87.2577 90.2874 87.2577 87.4702C87.2577 84.6529 87.7903 82.1849 88.8557 80.0661C89.9329 77.9472 91.448 76.3018 93.4011 75.13C95.3543 73.9581 97.6625 73.3722 100.326 73.3722C102.989 73.3722 105.297 73.9581 107.251 75.13C109.204 76.3018 110.713 77.9472 111.778 80.0661C112.855 82.1849 113.394 84.6529 113.394 87.4702C113.394 90.2874 112.855 92.7495 111.778 94.8565C110.713 96.9635 109.204 98.603 107.251 99.7749C105.297 100.947 102.989 101.533 100.326 101.533ZM100.361 96.3835C101.805 96.3835 103.013 95.987 103.984 95.1939C104.954 94.389 105.676 93.3118 106.15 91.9624C106.635 90.6129 106.878 89.1096 106.878 87.4524C106.878 85.7834 106.635 84.2741 106.15 82.9247C105.676 81.5634 104.954 80.4804 103.984 79.6754C103.013 78.8705 101.805 78.468 100.361 78.468C98.8817 78.468 97.6507 78.8705 96.6682 79.6754C95.6975 80.4804 94.9696 81.5634 94.4842 82.9247C94.0107 84.2741 93.774 85.7834 93.774 87.4524C93.774 89.1096 94.0107 90.6129 94.4842 91.9624C94.9696 93.3118 95.6975 94.389 96.6682 95.1939C97.6507 95.987 98.8817 96.3835 100.361 96.3835ZM136.232 89.5298V73.7273H142.66V101H136.428V96.1527H136.143C135.528 97.6797 134.516 98.9285 133.107 99.8991C131.71 100.87 129.988 101.355 127.94 101.355C126.153 101.355 124.573 100.959 123.2 100.165C121.838 99.3606 120.773 98.1946 120.004 96.6676C119.234 95.1288 118.849 93.2704 118.849 91.0923V73.7273H125.277V90.098C125.277 91.8262 125.751 93.1993 126.697 94.2173C127.644 95.2353 128.887 95.7443 130.426 95.7443C131.373 95.7443 132.291 95.5135 133.178 95.0518C134.066 94.5902 134.794 93.9036 135.362 92.9922C135.942 92.0689 136.232 90.9148 136.232 89.5298ZM149.269 101V73.7273H155.502V78.2727H155.786C156.283 76.6984 157.135 75.4851 158.343 74.6328C159.562 73.7687 160.953 73.3366 162.515 73.3366C162.87 73.3366 163.267 73.3544 163.705 73.3899C164.155 73.4136 164.527 73.455 164.823 73.5142V79.4268C164.551 79.3321 164.119 79.2493 163.527 79.1783C162.947 79.0954 162.385 79.054 161.84 79.054C160.669 79.054 159.615 79.3085 158.68 79.8175C157.757 80.3146 157.029 81.0071 156.496 81.8949C155.963 82.7827 155.697 83.8066 155.697 84.9666V101H149.269ZM169.378 101V64.6364H193.028V70.1584H175.965V80.0305H191.803V85.5526H175.965V95.478H193.17V101H169.378ZM223.825 73.7273L214.113 101H207.011L197.299 73.7273H204.152L210.42 93.9865H210.704L216.99 73.7273H223.825ZM239.419 101.533C236.685 101.533 234.324 100.964 232.335 99.8281C230.358 98.6799 228.837 97.0582 227.772 94.9631C226.706 92.8561 226.174 90.3762 226.174 87.5234C226.174 84.718 226.706 82.2559 227.772 80.1371C228.849 78.0064 230.352 76.3492 232.282 75.1655C234.211 73.9699 236.478 73.3722 239.082 73.3722C240.763 73.3722 242.349 73.6444 243.841 74.1889C245.344 74.7216 246.67 75.5502 247.818 76.6747C248.978 77.7992 249.889 79.2315 250.552 80.9716C251.215 82.6998 251.547 84.7595 251.547 87.1506V89.1214H229.192V84.7891H245.385C245.373 83.558 245.107 82.4631 244.586 81.5043C244.065 80.5336 243.338 79.7701 242.402 79.2138C241.479 78.6574 240.402 78.3793 239.171 78.3793C237.857 78.3793 236.703 78.6989 235.708 79.3381C234.714 79.9654 233.939 80.794 233.382 81.8239C232.838 82.8419 232.56 83.9605 232.548 85.1797V88.9616C232.548 90.5478 232.838 91.9091 233.418 93.0455C233.998 94.17 234.809 95.0341 235.851 95.6378C236.892 96.2296 238.111 96.5256 239.508 96.5256C240.443 96.5256 241.29 96.3954 242.047 96.1349C242.805 95.8627 243.462 95.4661 244.018 94.9453C244.574 94.4245 244.995 93.7794 245.279 93.0099L251.28 93.6847C250.901 95.2708 250.179 96.6558 249.114 97.8395C248.061 99.0114 246.711 99.9228 245.066 100.574C243.42 101.213 241.538 101.533 239.419 101.533ZM263.412 85.0199V101H256.984V73.7273H263.128V78.3615H263.447C264.075 76.8345 265.075 75.6212 266.448 74.7216C267.833 73.822 269.543 73.3722 271.579 73.3722C273.462 73.3722 275.101 73.7746 276.498 74.5795C277.906 75.3845 278.995 76.5504 279.765 78.0774C280.546 79.6044 280.931 81.4569 280.919 83.6349V101H274.491V84.6293C274.491 82.8063 274.018 81.38 273.071 80.3501C272.136 79.3203 270.84 78.8054 269.182 78.8054C268.058 78.8054 267.058 79.054 266.182 79.5511C265.318 80.0365 264.637 80.7408 264.14 81.6641C263.654 82.5874 263.412 83.706 263.412 85.0199ZM301.072 73.7273V78.6989H285.393V73.7273H301.072ZM289.264 67.1932H295.692V92.7969C295.692 93.661 295.822 94.3239 296.082 94.7855C296.354 95.2353 296.71 95.5431 297.148 95.7088C297.586 95.8745 298.071 95.9574 298.604 95.9574C299.006 95.9574 299.373 95.9278 299.704 95.8686C300.048 95.8094 300.308 95.7562 300.486 95.7088L301.569 100.734C301.225 100.852 300.734 100.982 300.095 101.124C299.468 101.266 298.698 101.349 297.787 101.373C296.177 101.42 294.727 101.178 293.437 100.645C292.146 100.1 291.122 99.2599 290.365 98.1236C289.619 96.9872 289.252 95.5668 289.264 93.8622V67.1932ZM331.092 76.2486C330.796 75.2898 330.388 74.4316 329.867 73.674C329.358 72.9046 328.742 72.2476 328.02 71.7031C327.31 71.1586 326.493 70.7502 325.57 70.478C324.647 70.1939 323.641 70.0518 322.552 70.0518C320.598 70.0518 318.858 70.5431 317.331 71.5256C315.804 72.508 314.603 73.9522 313.727 75.858C312.863 77.7519 312.431 80.0601 312.431 82.7827C312.431 85.5289 312.863 87.8549 313.727 89.7607C314.591 91.6664 315.793 93.1165 317.331 94.1108C318.87 95.0933 320.658 95.5845 322.694 95.5845C324.54 95.5845 326.138 95.2294 327.488 94.5192C328.849 93.8089 329.896 92.8028 330.63 91.5007C331.364 90.1868 331.731 88.648 331.731 86.8842L333.223 87.1151H323.351V81.9659H338.105V86.3338C338.105 89.447 337.443 92.1399 336.117 94.4126C334.791 96.6854 332.968 98.4373 330.648 99.6683C328.328 100.888 325.665 101.497 322.658 101.497C319.308 101.497 316.367 100.746 313.833 99.2422C311.312 97.727 309.341 95.5786 307.921 92.7969C306.512 90.0033 305.808 86.6889 305.808 82.8537C305.808 79.9181 306.222 77.2962 307.051 74.9879C307.891 72.6797 309.063 70.7206 310.566 69.1108C312.07 67.4891 313.833 66.258 315.858 65.4176C317.882 64.5653 320.083 64.1392 322.463 64.1392C324.475 64.1392 326.351 64.4351 328.091 65.027C329.831 65.607 331.376 66.4356 332.726 67.5128C334.087 68.59 335.205 69.8684 336.081 71.348C336.957 72.8277 337.531 74.4612 337.804 76.2486H331.092ZM361.574 89.5298V73.7273H368.002V101H361.769V96.1527H361.485C360.87 97.6797 359.858 98.9285 358.449 99.8991C357.052 100.87 355.33 101.355 353.282 101.355C351.495 101.355 349.915 100.959 348.541 100.165C347.18 99.3606 346.115 98.1946 345.345 96.6676C344.576 95.1288 344.191 93.2704 344.191 91.0923V73.7273H350.619V90.098C350.619 91.8262 351.092 93.1993 352.039 94.2173C352.986 95.2353 354.229 95.7443 355.768 95.7443C356.715 95.7443 357.632 95.5135 358.52 95.0518C359.408 94.5902 360.136 93.9036 360.704 92.9922C361.284 92.0689 361.574 90.9148 361.574 89.5298ZM379.554 73.3636V101H373.711V73.3636H379.554ZM395.382 101.479C393.24 101.479 391.322 100.929 389.629 99.8281C387.937 98.7273 386.599 97.1293 385.617 95.0341C384.634 92.9389 384.143 90.3939 384.143 87.3991C384.143 84.3688 384.64 81.812 385.634 79.7287C386.641 77.6335 387.996 76.0533 389.7 74.9879C391.405 73.9107 393.305 73.3722 395.4 73.3722C396.998 73.3722 398.312 73.6444 399.342 74.1889C400.372 74.7216 401.188 75.3667 401.792 76.1243C402.396 76.87 402.863 77.5743 403.195 78.2372H403.461V64.6364H409.906V101H403.585V96.7031H403.195C402.863 97.366 402.384 98.0703 401.757 98.8161C401.129 99.55 400.301 100.177 399.271 100.698C398.241 101.219 396.945 101.479 395.382 101.479ZM397.176 96.206C398.537 96.206 399.697 95.839 400.656 95.1051C401.615 94.3594 402.343 93.3236 402.84 91.9979C403.337 90.6721 403.585 89.1274 403.585 87.3636C403.585 85.5999 403.337 84.067 402.84 82.7649C402.354 81.4628 401.632 80.4508 400.674 79.7287C399.727 79.0066 398.561 78.6456 397.176 78.6456C395.743 78.6456 394.548 79.0185 393.589 79.7642C392.63 80.5099 391.908 81.5398 391.423 82.8537C390.937 84.1676 390.695 85.6709 390.695 87.3636C390.695 89.0682 390.937 90.5893 391.423 91.9268C391.92 93.2526 392.648 94.3002 393.607 95.0696C394.577 95.8272 395.767 96.206 397.176 96.206ZM428.83 101.533C426.095 101.533 423.734 100.964 421.745 99.8281C419.768 98.6799 418.247 97.0582 417.182 94.9631C416.117 92.8561 415.584 90.3762 415.584 87.5234C415.584 84.718 416.117 82.2559 417.182 80.1371C418.259 78.0064 419.762 76.3492 421.692 75.1655C423.621 73.9699 425.888 73.3722 428.492 73.3722C430.173 73.3722 431.759 73.6444 433.251 74.1889C434.754 74.7216 436.08 75.5502 437.228 76.6747C438.388 77.7992 439.3 79.2315 439.962 80.9716C440.625 82.6998 440.957 84.7595 440.957 87.1506V89.1214H418.602V84.7891H434.795C434.784 83.558 434.517 82.4631 433.996 81.5043C433.476 80.5336 432.748 79.7701 431.813 79.2138C430.889 78.6574 429.812 78.3793 428.581 78.3793C427.267 78.3793 426.113 78.6989 425.119 79.3381C424.124 79.9654 423.349 80.794 422.793 81.8239C422.248 82.8419 421.97 83.9605 421.958 85.1797V88.9616C421.958 90.5478 422.248 91.9091 422.828 93.0455C423.408 94.17 424.219 95.0341 425.261 95.6378C426.302 96.2296 427.522 96.5256 428.918 96.5256C429.853 96.5256 430.7 96.3954 431.457 96.1349C432.215 95.8627 432.872 95.4661 433.428 94.9453C433.985 94.4245 434.405 93.7794 434.689 93.0099L440.69 93.6847C440.312 95.2708 439.59 96.6558 438.524 97.8395C437.471 99.0114 436.121 99.9228 434.476 100.574C432.831 101.213 430.948 101.533 428.83 101.533Z" fill="#1D201F"/>
</svg>
