<svg width="36" height="36" viewBox="0 0 36 36" fill="none" xmlns="http://www.w3.org/2000/svg">
<path d="M13.6515 35.601V23.587H9.9405V18.0662H13.6515V15.6875C13.6515 9.53747 16.4235 6.68752 22.4385 6.68752C23.04 6.68752 23.871 6.75075 24.6405 6.84259C25.2169 6.90212 25.7886 7.00019 26.352 7.13617V12.142C26.0263 12.1115 25.6996 12.0935 25.3725 12.0878C25.0061 12.0783 24.6395 12.0738 24.273 12.0743C23.2125 12.0743 22.3845 12.2188 21.7605 12.5395C21.341 12.7507 20.9883 13.075 20.742 13.4759C20.355 14.1082 20.181 14.9739 20.181 16.1136V18.0662H26.0595L25.4805 21.2324L25.05 23.587H20.181V36C29.094 34.919 36 27.3026 36 18.0662C36 8.08916 27.9405 0 18 0C8.0595 0 0 8.08916 0 18.0662C0 26.5393 5.811 33.6484 13.6515 35.601Z" fill="white"/>
</svg>
