<svg width="20" height="20" viewBox="0 0 36 36" fill="none" xmlns="http://www.w3.org/2000/svg">
<g clip-path="url(#clip0_1_610)">
<path d="M18 0C13.11 0 12.4995 0.0225 10.5795 0.108C8.6625 0.198 7.3575 0.4995 6.21 0.945C5.0265 1.404 4.0215 2.0205 3.021 3.021C2.0205 4.0215 1.4025 5.025 0.945 6.21C0.4995 7.3575 0.1965 8.6625 0.108 10.5795C0.018 12.4995 0 13.11 0 18C0 22.89 0.0225 23.5005 0.108 25.4205C0.198 27.336 0.4995 28.6425 0.945 29.79C1.404 30.972 2.0205 31.9785 3.021 32.979C4.0215 33.978 5.025 34.5975 6.21 35.055C7.359 35.499 8.664 35.8035 10.5795 35.892C12.4995 35.982 13.11 36 18 36C22.89 36 23.5005 35.9775 25.4205 35.892C27.336 35.802 28.6425 35.499 29.79 35.055C30.972 34.596 31.9785 33.978 32.979 32.979C33.978 31.9785 34.5975 30.9765 35.055 29.79C35.499 28.6425 35.8035 27.336 35.892 25.4205C35.982 23.5005 36 22.89 36 18C36 13.11 35.9775 12.4995 35.892 10.5795C35.802 8.664 35.499 7.356 35.055 6.21C34.596 5.0265 33.978 4.0215 32.979 3.021C31.9785 2.0205 30.9765 1.4025 29.79 0.945C28.6425 0.4995 27.336 0.1965 25.4205 0.108C23.5005 0.018 22.89 0 18 0ZM18 3.24C22.8045 3.24 23.3775 3.264 25.275 3.3465C27.03 3.429 27.9825 3.72 28.6155 3.969C29.4585 4.2945 30.0555 4.6845 30.6885 5.313C31.317 5.943 31.707 6.5415 32.0325 7.3845C32.2785 8.0175 32.5725 8.97 32.652 10.725C32.7375 12.624 32.757 13.194 32.757 18C32.757 22.806 32.7345 23.3775 32.646 25.275C32.5545 27.03 32.262 27.9825 32.0145 28.6155C31.6785 29.4585 31.296 30.0555 30.666 30.6885C30.0375 31.317 29.43 31.707 28.596 32.0325C27.966 32.2785 26.9985 32.5725 25.2435 32.652C23.3325 32.7375 22.77 32.757 17.955 32.757C13.1385 32.757 12.576 32.7345 10.6665 32.646C8.91 32.5545 7.9425 32.262 7.3125 32.0145C6.459 31.6785 5.8725 31.296 5.244 30.666C4.6125 30.0375 4.209 29.43 3.894 28.596C3.6465 27.966 3.3555 26.9985 3.264 25.2435C3.1965 23.3535 3.1725 22.77 3.1725 17.9775C3.1725 13.1835 3.1965 12.5985 3.264 10.686C3.3555 8.931 3.6465 7.965 3.894 7.335C4.209 6.48 4.6125 5.895 5.244 5.2635C5.8725 4.635 6.459 4.23 7.3125 3.9165C7.9425 3.6675 8.889 3.375 10.644 3.285C12.5565 3.2175 13.119 3.195 17.9325 3.195L18 3.24ZM18 8.757C12.8925 8.757 8.757 12.897 8.757 18C8.757 23.1075 12.897 27.243 18 27.243C23.1075 27.243 27.243 23.103 27.243 18C27.243 12.8925 23.103 8.757 18 8.757ZM18 24C14.685 24 12 21.315 12 18C12 14.685 14.685 12 18 12C21.315 12 24 14.685 24 18C24 21.315 21.315 24 18 24ZM29.769 8.3925C29.769 9.585 28.8 10.5525 27.609 10.5525C26.4165 10.5525 25.449 9.5835 25.449 8.3925C25.449 7.2015 26.418 6.234 27.609 6.234C28.7985 6.2325 29.769 7.2015 29.769 8.3925Z" fill="white"/>
</g>
<defs>
<clipPath id="clip0_1_610">
<rect width="36" height="36" fill="white"/>
</clipPath>
</defs>
</svg>
