<svg width="17" height="20" viewBox="0 0 27 43" fill="none" xmlns="http://www.w3.org/2000/svg">
<path d="M1.02395 0C0.431138 0 0 0.429463 0 1.01997V41.98C0 42.5705 0.431138 43 1.02395 43H25.976C26.5689 43 27 42.5705 27 41.98V1.01997C27 0.429463 26.5689 0 25.976 0L1.02395 0ZM5.38922 5.36829H21.5569V32.2097H5.38922V5.36829ZM13.4731 34.8939C14.982 34.8939 16.1677 36.0749 16.1677 37.578C16.1677 39.0811 14.982 40.2622 13.4731 40.2622C11.9641 40.2622 10.7784 39.0811 10.7784 37.578C10.7784 36.0749 11.9641 34.8939 13.4731 34.8939Z" fill="white"/>
</svg>
